HIERARCHY
ROOT Pelvis
{
	OFFSET 0.000000 0.941512 0.000000
	CHANNELS 6 Xposition Yposition Zposition Zrotation Yrotation Xrotation 
	JOINT Pelvis_L_Hip
	{
		OFFSET 0.000000 0.000000 0.000000
		CHANNELS 3 Zrotation Yrotation Xrotation
		JOINT L_Hip
		{
			OFFSET 0.062321 -0.080322 -0.016990
			CHANNELS 3 Zrotation Yrotation Xrotation
			JOINT L_Knee
			{
				OFFSET 0.093051 -0.381305 -0.029784
				CHANNELS 3 Zrotation Yrotation Xrotation
				JOINT L_Ankle
				{
					OFFSET -0.010371 -0.431000 -0.033614
					CHANNELS 3 Zrotation Yrotation Xrotation
					End Site #name: L_Foot
					{
						OFFSET 0.069299 -0.038670 0.119418
					}
				}
			}
		}
	}
	JOINT Pelvis_R_Hip
	{
		OFFSET 0.000000 0.000000 0.000000
		CHANNELS 3 Zrotation Yrotation Xrotation
		JOINT R_Hip
		{
			OFFSET -0.055334 -0.094904 -0.002373
			CHANNELS 3 Zrotation Yrotation Xrotation
			JOINT R_Knee
			{
				OFFSET -0.064207 -0.384370 -0.019592
				CHANNELS 3 Zrotation Yrotation Xrotation
				JOINT R_Ankle
				{
					OFFSET 0.025418 -0.419734 -0.065953
					CHANNELS 3 Zrotation Yrotation Xrotation
					End Site #name: R_Foot
					{
						OFFSET -0.057233 -0.039888 0.132134
					}
				}
			}
		}
	}
	JOINT Pelvis_Spine1
	{
		OFFSET 0.000000 0.000000 0.000000
		CHANNELS 3 Zrotation Yrotation Xrotation
		JOINT Spine1
		{
			OFFSET -0.005562 0.124093 -0.043360
			CHANNELS 3 Zrotation Yrotation Xrotation
			JOINT Spine2
			{
				OFFSET 0.012244 0.139499 0.029894
				CHANNELS 3 Zrotation Yrotation Xrotation
				JOINT Spine3
				{
					OFFSET -0.002556 0.056561 0.009225
					CHANNELS 3 Zrotation Yrotation Xrotation
					JOINT Spine3_Neck
					{
						OFFSET 0.000000 0.000000 0.000000
						CHANNELS 3 Zrotation Yrotation Xrotation
						JOINT Neck
						{
							OFFSET -0.005205 0.217920 -0.024551
							CHANNELS 3 Zrotation Yrotation Xrotation
							End Site #name: Head
							{
								OFFSET 0.002365 0.091850 0.046637
							}
						}
					}
					JOINT Spine3_L_Collar
					{
						OFFSET 0.000000 0.000000 0.000000
						CHANNELS 3 Zrotation Yrotation Xrotation
						JOINT L_Collar
						{
							OFFSET 0.072225 0.116603 -0.009480
							CHANNELS 3 Zrotation Yrotation Xrotation
							JOINT L_Shoulder
							{
								OFFSET 0.115937 -0.058643 -0.021018
								CHANNELS 3 Zrotation Yrotation Xrotation
								JOINT L_Elbow
								{
									OFFSET 0.021994 -0.254722 -0.024492
									CHANNELS 3 Zrotation Yrotation Xrotation
									End Site #name: L_Wrist
									{
										OFFSET 0.048810 -0.240214 0.103329
									}
								}
							}
						}
					}
					JOINT Spine3_R_Collar
					{
						OFFSET 0.000000 0.000000 0.000000
						CHANNELS 3 Zrotation Yrotation Xrotation
						JOINT R_Collar
						{
							OFFSET -0.073372 0.120704 -0.024611
							CHANNELS 3 Zrotation Yrotation Xrotation
							JOINT R_Shoulder
							{
								OFFSET -0.108089 -0.054969 -0.020504
								CHANNELS 3 Zrotation Yrotation Xrotation
								JOINT R_Elbow
								{
									OFFSET -0.033684 -0.260739 0.009889
									CHANNELS 3 Zrotation Yrotation Xrotation
									End Site #name: R_Wrist
									{
										OFFSET -0.067980 -0.232763 0.118463
									}
								}
							}
						}
					}
				}
			}
		}
	}
}
MOTION
Frames: 12
Frame Time: 0.041667
1.603035 0.944440 0.897040 2.090717 22.576457 6.335284 0.000000 0.000000 0.000000 -29.231696 -7.055708 -14.329985 9.473303 0.446269 -16.655456 67.698922 62.539283 76.902285 0.000000 0.000000 0.000000 26.073518 -1.963603 -1.126410 -27.017441 0.067647 -10.577617 54.892732 -46.552927 115.344197 0.000000 0.000000 0.000000 0.137034 1.366160 -28.488839 -6.310477 1.801546 8.711703 16.871835 22.571352 23.039480 0.000000 0.000000 0.000000 -30.391234 -22.724179 -69.979095 0.000000 0.000000 0.000000 -107.706387 70.434885 -26.573192 13.330527 -0.460758 -66.957432 12.452611 5.618428 5.324166 0.000000 0.000000 0.000000 -67.308202 66.415748 -148.897518 -12.430595 -1.986260 92.189209 22.358186 9.387471 5.038203 
1.628813 0.949166 0.861721 2.440608 20.983845 6.575580 0.000000 0.000000 0.000000 -29.500331 -7.056572 -14.479206 6.292082 0.282080 -19.577157 64.451266 61.830410 77.697205 0.000000 0.000000 0.000000 24.041114 -1.335843 -1.821634 -28.508372 -0.374759 -11.875923 56.975204 -44.884872 115.362259 0.000000 0.000000 0.000000 0.975805 1.490816 -27.390045 -7.007069 1.945870 8.383347 16.333706 20.461123 23.485567 0.000000 0.000000 0.000000 -24.489147 -21.992264 -75.694211 0.000000 0.000000 0.000000 -121.067078 64.253057 -33.734804 16.987899 1.761843 -71.549668 13.457957 6.141207 7.952675 0.000000 0.000000 0.000000 -75.168143 71.217246 -165.319776 -18.434989 4.459144 97.822978 25.143199 9.238782 7.854061 
1.652903 0.953281 0.827790 2.869537 19.133066 7.035145 0.000000 0.000000 0.000000 -28.162580 -5.624516 -12.787585 0.581967 -0.702379 -26.465745 57.477044 60.452708 77.785956 0.000000 0.000000 0.000000 21.257212 -0.338852 -3.535648 -28.961392 -0.263045 -11.773150 59.852263 -44.024105 116.654598 0.000000 0.000000 0.000000 1.525180 1.589127 -27.295637 -7.693340 2.113148 8.404702 15.567646 18.171524 24.002017 0.000000 0.000000 0.000000 -18.195387 -20.017993 -80.755022 0.000000 0.000000 0.000000 -129.334192 56.755395 -35.882103 21.437527 4.849028 -75.841969 14.157415 6.501082 10.341577 0.000000 0.000000 0.000000 -92.089798 76.650225 168.230517 -26.284466 13.889872 101.489074 28.957299 8.675910 11.941724 
1.672504 0.956404 0.797744 3.087045 17.492945 7.610016 0.000000 0.000000 0.000000 -24.635491 -3.179511 -9.366384 -6.642984 -3.485010 -36.523431 58.874969 59.284448 87.784553 0.000000 0.000000 0.000000 18.676209 0.616191 -5.722354 -28.625286 0.006216 -11.297953 61.769797 -43.893073 118.546858 0.000000 0.000000 0.000000 1.417057 1.671205 -28.267003 -7.812300 2.202220 8.979203 14.536785 15.760030 24.183174 0.000000 0.000000 0.000000 -12.189317 -17.222351 -84.566397 0.000000 0.000000 0.000000 -134.452135 47.860907 -34.291191 27.906525 9.797391 -80.225730 15.221749 6.952354 13.300342 0.000000 0.000000 0.000000 -133.158901 79.852443 116.508031 -37.325655 26.417044 100.926929 33.023686 6.713821 17.974974 
1.687747 0.958781 0.770745 3.010104 16.299595 8.120945 0.000000 0.000000 0.000000 -20.221626 -0.760227 -4.944240 -11.111777 -6.828990 -46.616231 78.097582 56.030908 115.008942 0.000000 0.000000 0.000000 16.712485 1.394883 -7.960017 -28.031291 0.241818 -10.841272 62.896932 -43.983369 120.196012 0.000000 0.000000 0.000000 1.253175 1.744734 -29.601609 -7.532260 2.221958 9.844826 13.011230 13.272664 23.838181 0.000000 0.000000 0.000000 -6.672323 -14.054291 -87.017052 0.000000 0.000000 0.000000 -137.827489 37.639600 -29.894738 36.824673 17.027833 -83.606376 17.070845 7.553231 16.928648 0.000000 0.000000 0.000000 179.442615 74.995281 56.624639 -60.390848 41.639336 86.356260 35.570743 1.013951 28.349880 
1.700055 0.960834 0.745183 2.335883 15.335367 8.318455 0.000000 0.000000 0.000000 -16.101627 1.170064 -0.175228 -9.922942 -7.554873 -53.585680 92.836727 47.727334 138.664906 0.000000 0.000000 0.000000 15.631137 2.054318 -10.177251 -27.383376 0.504484 -10.231676 62.893895 -44.334323 121.862959 0.000000 0.000000 0.000000 1.760983 1.858053 -30.970132 -7.182487 2.220308 10.730318 11.491968 10.707865 23.496447 0.000000 0.000000 0.000000 -1.457853 -10.785492 -88.574155 0.000000 0.000000 0.000000 -140.560531 26.994663 -24.309110 47.885769 25.242313 -83.458286 19.496412 8.148880 20.729282 0.000000 0.000000 0.000000 160.955711 63.800224 24.895359 -104.428747 42.536334 45.179241 27.984674 -8.508566 42.719948 
1.710321 0.962036 0.719546 1.394108 14.328632 8.342261 0.000000 0.000000 0.000000 -12.980749 2.485983 4.083157 -4.807986 -5.073299 -55.242590 98.580556 40.528808 150.500265 0.000000 0.000000 0.000000 15.045125 2.711305 -12.548606 -26.802895 0.838130 -9.359406 61.749268 -44.947575 123.931372 0.000000 0.000000 0.000000 2.612648 2.019141 -32.314740 -6.923900 2.230727 11.521297 10.208636 8.093322 23.313561 0.000000 0.000000 0.000000 3.748834 -7.365600 -89.344895 0.000000 0.000000 0.000000 -142.997136 16.035779 -17.971918 63.325117 33.229531 -77.261632 21.895047 8.539444 25.988722 0.000000 0.000000 0.000000 155.234849 50.535193 6.308716 -130.056464 15.231774 12.231578 5.511753 -13.378873 53.518544 
1.719045 0.961673 0.692888 0.592322 13.517232 8.342532 0.000000 0.000000 0.000000 -11.237657 3.325955 7.244145 2.382046 -1.219738 -51.352082 97.933356 36.116292 156.717543 0.000000 0.000000 0.000000 14.587496 3.357346 -14.999023 -26.499230 1.162153 -8.449712 60.836559 -45.553292 125.919152 0.000000 0.000000 0.000000 3.358434 2.168768 -33.268848 -6.789308 2.239350 11.931013 9.216102 5.646169 23.296668 0.000000 0.000000 0.000000 8.735432 -4.201012 -89.287292 0.000000 0.000000 0.000000 -144.907604 5.670017 -11.223249 84.797615 37.423743 -62.787222 22.639053 8.442703 33.598250 0.000000 0.000000 0.000000 153.508905 37.244171 -7.602090 -126.728422 -16.982257 -8.864626 -16.192168 -12.506191 48.985772 
1.726410 0.959869 0.664409 0.131001 13.106989 8.432902 0.000000 0.000000 0.000000 -10.870274 3.865500 9.109549 10.704985 1.988133 -43.261894 86.513213 34.872609 162.437300 0.000000 0.000000 0.000000 13.793652 4.025114 -17.813034 -26.180518 1.602742 -7.067348 62.750850 -45.212650 126.338086 0.000000 0.000000 0.000000 3.746857 2.252936 -33.762984 -6.645343 2.212752 11.998818 8.501668 3.705431 23.396061 0.000000 0.000000 0.000000 12.927797 -1.808826 -88.703636 0.000000 0.000000 0.000000 -146.402511 -2.741598 -5.014713 106.264952 34.094891 -45.304323 20.293418 8.142219 41.422466 0.000000 0.000000 0.000000 153.368457 26.587053 -17.578429 -109.389177 -33.790760 -28.591747 -24.711672 -12.493691 37.625518 
1.732363 0.956843 0.633583 -0.132347 12.824800 8.480484 0.000000 0.000000 0.000000 -11.361913 4.151347 9.748527 19.073848 3.261492 -32.346641 66.129221 38.332890 164.867433 0.000000 0.000000 0.000000 12.709246 4.654991 -20.865221 -25.655540 2.114329 -5.335502 67.152264 -43.818244 125.503822 0.000000 0.000000 0.000000 4.138478 2.303040 -33.685528 -6.632337 2.193566 11.753005 7.990806 2.229977 23.707900 0.000000 0.000000 0.000000 16.439644 -0.017388 -88.148269 0.000000 0.000000 0.000000 -147.691017 -8.874057 -0.182354 119.809577 26.521243 -33.152561 16.410121 8.156794 46.923068 0.000000 0.000000 0.000000 153.841909 18.360879 -24.987656 -90.140678 -38.725864 -46.194893 -26.285555 -12.674033 28.141732 
1.739743 0.952146 0.601137 0.948659 18.583466 8.271965 0.000000 0.000000 0.000000 -8.746885 3.547238 9.588904 21.286617 1.737285 -22.078026 63.526885 38.355816 155.343096 0.000000 0.000000 0.000000 8.043918 4.276342 -23.507429 -24.501732 2.772625 -2.061415 106.951439 -15.626334 112.126732 0.000000 0.000000 0.000000 0.974717 1.610150 -32.544743 -5.094002 1.683380 11.123910 11.034334 8.571947 23.230656 0.000000 0.000000 0.000000 5.920253 -8.865003 -90.099039 0.000000 0.000000 0.000000 -142.054435 17.449351 -14.461294 64.497321 33.455335 -76.781716 21.732743 8.485813 27.087022 0.000000 0.000000 0.000000 153.519412 48.755373 -3.109553 -131.890841 2.830423 3.945387 -6.226642 -13.488959 55.863889 
1.745708 0.945692 0.567006 1.282518 18.630576 8.538539 0.000000 0.000000 0.000000 -8.913390 3.519557 9.383976 24.917233 0.409612 -13.286241 43.553739 40.593477 154.648003 0.000000 0.000000 0.000000 6.397137 4.299165 -25.525666 -24.530379 2.639604 -2.576745 113.817244 -10.659193 113.669559 0.000000 0.000000 0.000000 0.760355 1.586651 -32.596648 -4.995327 1.644402 10.877374 11.013116 8.181806 23.463834 0.000000 0.000000 0.000000 7.503220 -8.139427 -89.946243 0.000000 0.000000 0.000000 -142.327937 16.192132 -13.567160 66.709870 34.175256 -75.498363 21.803163 8.475078 28.083095 0.000000 0.000000 0.000000 153.272801 46.136155 -6.227571 -131.267856 -4.531104 -0.600625 -11.564069 -13.094595 54.534423 
